<svg width="351" height="108" viewBox="0 0 351 108" fill="none" xmlns="http://www.w3.org/2000/svg">
<g clip-path="url(#clip0_21_218)">
<path d="M137.92 78.49V28.55H146.48V46.02C149.227 43.4587 152.865 42.0702 156.62 42.15C158.763 42.1148 160.884 42.5854 162.811 43.5237C164.738 44.4619 166.416 45.8414 167.71 47.55C170.535 51.3672 172.06 55.9908 172.06 60.74C172.06 65.4891 170.535 70.1128 167.71 73.93C166.418 75.6416 164.74 77.0239 162.813 77.964C160.886 78.9042 158.764 79.3756 156.62 79.34C152.36 79.34 149.027 77.91 146.62 75.05H146.48V78.49H137.92ZM154.62 50.01C153.313 49.9355 152.01 50.2148 150.849 50.8185C149.687 51.4221 148.71 52.3277 148.02 53.44C146.825 55.6877 146.2 58.1944 146.2 60.74C146.2 63.2856 146.825 65.7923 148.02 68.04C148.709 69.1541 149.686 70.0617 150.847 70.6672C152.009 71.2726 153.312 71.5534 154.62 71.48C155.935 71.5463 157.244 71.2629 158.414 70.6586C159.584 70.0543 160.573 69.1508 161.28 68.04C162.438 65.7809 163.042 63.2787 163.042 60.74C163.042 58.2013 162.438 55.699 161.28 53.44C160.572 52.3303 159.583 51.4282 158.413 50.8256C157.243 50.223 155.934 49.9416 154.62 50.01Z" fill="#1D1D1B"/>
<path d="M207.94 53.79V72.55C207.812 74.6352 208.273 76.7145 209.27 78.55H200.22C199.624 77.5813 199.332 76.4564 199.38 75.32C196.121 78.0012 192.02 79.446 187.8 79.4C184.64 79.5083 181.556 78.4148 179.17 76.34C178.034 75.3278 177.137 74.0764 176.542 72.6759C175.947 71.2754 175.67 69.7604 175.73 68.24C175.73 62.24 179.334 58.5434 186.54 57.15L190.12 56.45C192.5 55.9834 195.587 55.2834 199.38 54.35V53.29C199.38 50.29 197.14 48.8 192.64 48.8C190.167 48.8 188.45 49.2 187.49 50C186.53 50.8 186.05 52.18 186.05 54.14L177.49 53.79C177.412 52.0278 177.799 50.276 178.612 48.7104C179.424 47.1448 180.634 45.8204 182.12 44.87C184.827 43.0967 188.334 42.21 192.64 42.21C197.28 42.21 200.78 42.89 203.17 44.21C206.35 46.0234 207.94 49.2167 207.94 53.79ZM199.38 65.79V60.79C198.08 61.3752 196.713 61.8017 195.31 62.06L190.61 63.06C189.152 63.2911 187.748 63.7894 186.47 64.53C185.897 64.8941 185.432 65.4054 185.125 66.0106C184.817 66.6157 184.677 67.2924 184.72 67.97C184.706 68.5888 184.842 69.2018 185.115 69.7571C185.388 70.3124 185.791 70.7936 186.29 71.16C187.444 72.0145 188.856 72.4486 190.29 72.39C192.393 72.427 194.466 71.8949 196.29 70.85C197.229 70.3822 198.016 69.6593 198.563 68.7644C199.109 67.8694 199.393 66.8386 199.38 65.79Z" fill="#1D1D1B"/>
<path d="M215.87 78.49V42.99H224.43V47.9C226.35 44.0666 229.997 42.15 235.37 42.15V50.85C232.639 50.7088 229.943 51.5258 227.75 53.16C225.543 54.9866 224.437 57.7 224.43 61.3V78.49H215.87Z" fill="#1D1D1B"/>
<path d="M273.54 62.78H247.3C247.303 63.983 247.569 65.1709 248.078 66.2607C248.588 67.3505 249.329 68.3161 250.25 69.09C251.941 70.6668 254.179 71.524 256.49 71.48C258.486 71.5733 260.473 71.159 262.266 70.2758C264.058 69.3927 265.598 68.0695 266.74 66.43L273.96 70.63C270.18 76.43 264.357 79.3333 256.49 79.34C250.877 79.34 246.41 77.56 243.09 74C239.91 70.5866 238.32 66.1666 238.32 60.74C238.137 55.8168 239.889 51.0177 243.2 47.37C246.453 43.89 250.883 42.15 256.49 42.15C267.863 42.15 273.547 49.0266 273.54 62.78ZM247.3 56.18H264.56C264.464 54.5934 263.792 53.0965 262.67 51.97C261.921 51.0627 260.976 50.3382 259.905 49.8512C258.834 49.3643 257.666 49.1279 256.49 49.16C254.317 49.101 252.193 49.809 250.49 51.16C248.889 52.4234 247.764 54.1935 247.3 56.18Z" fill="#1D1D1B"/>
<path d="M311.43 42.99V78.49H302.87V74.98C300.61 77.8933 297.197 79.3466 292.63 79.34C289.491 79.4937 286.39 78.6041 283.81 76.81C281.017 74.6366 279.62 71.1967 279.62 66.49V42.99H288.18V63.99C288.18 68.6567 290.283 70.99 294.49 70.99C295.751 71.0753 297.014 70.8585 298.174 70.3576C299.334 69.8567 300.358 69.0861 301.16 68.11C302.392 66.3178 303.007 64.1728 302.91 62V42.99H311.43Z" fill="#1D1D1B"/>
<path d="M319.85 78.49V42.99H328.41V46.55C329.589 45.1217 331.083 43.9857 332.775 43.231C334.466 42.4763 336.309 42.1234 338.16 42.2C346.353 42.2 350.447 46.2234 350.44 54.27V78.54H341.88V56.81C341.88 52.5634 339.917 50.4367 335.99 50.43C334.992 50.3929 333.998 50.5742 333.078 50.9611C332.157 51.348 331.332 51.9312 330.66 52.67C329.16 54.31 328.41 56.6734 328.41 59.76V78.49H319.85Z" fill="#1D1D1B"/>
<path d="M0.25 48.74C0.25 48.41 0.320001 48.07 0.360001 47.74C0.320001 48.07 0.28 48.41 0.25 48.74Z" fill="white"/>
<path d="M4.16016 33.13C4.28016 32.83 4.42016 32.54 4.55016 32.25C4.42016 32.55 4.28016 32.83 4.16016 33.13Z" fill="white"/>
<path d="M22.8101 9.89999C24.1834 8.93333 25.6034 8.02666 27.0701 7.17999C25.5967 8.01999 24.1767 8.92666 22.8101 9.89999Z" fill="white"/>
<path d="M10.21 22.37C10.41 22.1 10.6 21.82 10.81 21.55C10.62 21.82 10.41 22.1 10.21 22.37Z" fill="white"/>
<path d="M5.16992 30.88C5.31992 30.56 5.47992 30.24 5.63992 29.88C5.47992 30.24 5.31992 30.55 5.16992 30.88Z" fill="white"/>
<path d="M7.47021 26.55C7.66021 26.23 7.85022 25.9 8.05022 25.55C7.85022 25.9 7.62021 26.23 7.47021 26.55Z" fill="white"/>
<path d="M105.62 69.43C105.42 70.07 105.22 70.7 105 71.33C105.2 70.7 105.4 70.07 105.62 69.43Z" fill="white"/>
<path d="M107.87 53.94C107.87 54.94 107.87 55.94 107.78 56.94C107.83 55.94 107.87 54.94 107.87 53.94Z" fill="white"/>
<path d="M2.22998 38.55C2.30998 38.28 2.37998 38 2.46998 37.73C2.37998 38.03 2.30998 38.31 2.22998 38.55Z" fill="white"/>
<path d="M107.71 57.81C107.66 58.49 107.61 59.17 107.54 59.81C107.62 59.17 107.62 58.49 107.71 57.81Z" fill="white"/>
<path d="M0.560059 46.19C0.610059 45.84 0.660058 45.49 0.720058 45.19C0.620058 45.49 0.620059 45.84 0.560059 46.19Z" fill="white"/>
<path d="M107.4 60.91C107.32 61.52 107.24 62.14 107.14 62.75C107.24 62.14 107.32 61.55 107.4 60.91Z" fill="white"/>
<path d="M16.9201 46.19C16.9049 46.3811 16.9383 46.5729 17.0169 46.7476C17.0956 46.9224 17.217 47.0746 17.3701 47.19C17.6734 47.4308 18.053 47.555 18.4401 47.54H31.29V43.42H16.9201V46.19Z" fill="#104573"/>
<path d="M0.120117 50.44C0.120117 49.87 0.200118 49.31 0.250118 48.74C0.200118 49.31 0.160117 49.87 0.120117 50.44Z" fill="#104573"/>
<path d="M0.360352 47.73C0.420352 47.22 0.480349 46.73 0.560349 46.19C0.480349 46.7 0.420352 47.22 0.360352 47.73Z" fill="#104573"/>
<path d="M0.720215 45.14C0.800215 44.65 0.890215 44.14 0.990215 43.66C0.890215 44.15 0.800215 44.65 0.720215 45.14Z" fill="#104573"/>
<path d="M0 53.83C0 52.99 -2.44007e-06 52.16 0.0599976 51.33C0.0199976 52.16 0 52.99 0 53.83Z" fill="#104573"/>
<path d="M107.78 56.91C107.78 57.21 107.78 57.51 107.71 57.81C107.73 57.55 107.76 57.21 107.78 56.91Z" fill="#104573"/>
<path d="M53.9299 0C53.0799 0 52.2299 -3.05474e-07 51.3799 0.0699997C52.2299 0.0699997 53.0799 0 53.9299 0Z" fill="#104573"/>
<path d="M107.54 59.85C107.54 60.2 107.45 60.55 107.4 60.91C107.45 60.55 107.5 60.2 107.54 59.85Z" fill="#104573"/>
<path d="M104.98 71.33C104.89 71.59 104.81 71.86 104.71 72.13C104.81 71.86 104.89 71.55 104.98 71.33Z" fill="#104573"/>
<path d="M103.85 74.37C103.85 74.5 103.75 74.63 103.69 74.76C103.75 74.63 103.8 74.55 103.85 74.37Z" fill="#104573"/>
<path d="M5.62012 29.92C5.82012 29.5067 6.03012 29.0967 6.25012 28.69C6.04345 29.1033 5.83345 29.5133 5.62012 29.92Z" fill="#104573"/>
<path d="M1.78027 40.17C1.92027 39.6367 2.07027 39.1067 2.23027 38.58C2.07027 39.1134 1.92027 39.6434 1.78027 40.17Z" fill="#104573"/>
<path d="M18.1602 13.55C18.4402 13.29 18.7302 13.05 19.0202 12.8C18.7302 13.09 18.4402 13.33 18.1602 13.55Z" fill="#104573"/>
<path d="M9.37988 23.55C9.64988 23.16 9.92988 22.78 10.2099 22.39C9.92988 22.76 9.61988 23.14 9.37988 23.55Z" fill="#104573"/>
<path d="M10.8101 21.55C11.2701 20.92 11.7501 20.31 12.2401 19.72C11.7501 20.31 11.2701 20.93 10.8101 21.55Z" fill="#104573"/>
<path d="M99.06 83.46H66.38V65.36H72.38V77.41H102.45C102.87 76.54 103.27 75.65 103.64 74.76C103.7 74.63 103.75 74.5 103.8 74.37C104.1 73.63 104.39 72.88 104.66 72.13C104.76 71.86 104.84 71.59 104.93 71.33C105.15 70.7 105.35 70.07 105.55 69.43L105.82 68.43C105.99 67.83 106.14 67.23 106.29 66.63L106.53 65.58C106.66 64.99 106.78 64.39 106.89 63.79C106.96 63.43 107.03 63.07 107.09 62.71C107.19 62.1 107.27 61.48 107.35 60.87C107.4 60.51 107.45 60.16 107.49 59.81C107.56 59.13 107.61 58.45 107.66 57.81C107.66 57.51 107.66 57.21 107.73 56.91C107.78 55.91 107.82 54.91 107.82 53.91C107.812 39.6181 102.132 25.9135 92.0285 15.8057C81.9244 5.69792 68.222 0.0132458 53.93 0C53.08 0 52.23 -3.05474e-07 51.38 0.0699997C50.53 0.14 49.71 0.169998 48.88 0.239998V45.99H60.88V51.99H42.83V1.15C41.56 1.42 40.3 1.74 39.06 2.1L38.23 2.33L36.82 2.79L35.88 3.11L34.54 3.61L33.54 3.99L32.24 4.54L31.3 4.96L30.07 5.55L29.15 6.01C28.74 6.23 28.32 6.44 27.91 6.67L27.07 7.16C25.5967 8 24.1767 8.90667 22.81 9.88L21.93 10.5L20.93 11.3L20.05 11.99L19.05 12.82C18.76 13.07 18.47 13.31 18.19 13.57L17.25 14.42L16.4 15.23L15.51 16.1L14.67 16.99L13.85 17.86L12.96 18.86L12.27 19.67C11.78 20.26 11.27 20.87 10.84 21.5C10.63 21.77 10.44 22.05 10.24 22.32C10.04 22.59 9.68005 23.09 9.41005 23.48L8.81004 24.4L8.05005 25.55C7.85005 25.87 7.66004 26.2 7.47004 26.55C7.28004 26.9 7.02005 27.32 6.80005 27.71C6.58005 28.1 6.44005 28.36 6.27005 28.71C6.10005 29.06 5.84005 29.53 5.64005 29.94C5.44005 30.35 5.32004 30.58 5.17004 30.94C5.02004 31.3 4.75005 31.85 4.55005 32.31C4.42005 32.6 4.28005 32.89 4.16005 33.19C3.91005 33.79 3.68005 34.39 3.45005 34.99C3.39005 35.16 3.32005 35.33 3.25005 35.49C2.97005 36.26 2.71004 37.04 2.47004 37.82C2.38004 38.09 2.31005 38.37 2.23005 38.64C2.07005 39.1733 1.92004 39.7033 1.78004 40.23C1.69004 40.55 1.62004 40.88 1.54004 41.23C1.42004 41.72 1.30004 42.23 1.19004 42.72C1.12004 43.06 1.05004 43.41 0.990043 43.72C0.930043 44.03 0.800043 44.72 0.720043 45.2C0.640043 45.68 0.610043 45.9 0.560043 46.2C0.480043 46.71 0.420046 47.2 0.360046 47.74C0.360046 48.08 0.280046 48.42 0.250046 48.74C0.200046 49.31 0.160044 49.87 0.120044 50.44L0.0600431 51.33C0.0600431 52.16 4.55658e-05 52.99 4.55658e-05 53.83V53.94C-0.010866 62.3301 1.93811 70.6067 5.69167 78.1104C9.44522 85.614 14.8996 92.1372 21.62 97.16C23.4537 98.5218 25.3708 99.7676 27.36 100.89C28.36 101.47 29.43 102.03 30.51 102.55C37.8025 106.064 45.7952 107.883 53.89 107.87C54.97 107.87 56.03 107.87 57.1 107.77L58.1 107.69C58.85 107.69 59.59 107.57 60.34 107.48L61.34 107.35C62.12 107.24 62.89 107.11 63.66 106.97L64.44 106.83C65.44 106.63 66.5 106.4 67.5 106.13L67.81 106.05C68.71 105.81 69.61 105.54 70.49 105.26L71.27 104.99C72.0234 104.743 72.7634 104.473 73.49 104.18L74.23 103.89C75.1 103.54 75.96 103.16 76.8 102.76L77.02 102.67C78.02 102.2 78.95 101.67 79.89 101.19L80.04 101.11C80.9 100.63 81.74 100.11 82.57 99.61L83.01 99.33C83.78 98.83 84.55 98.33 85.29 97.77L85.59 97.56C88.1783 95.674 90.5944 93.5624 92.81 91.25L92.97 91.08C95.2276 88.7305 97.266 86.1799 99.06 83.46ZM37.34 51.99H16.81C15.2406 52.0754 13.6888 51.624 12.41 50.71C11.861 50.2463 11.4291 49.6596 11.1493 48.9976C10.8696 48.3356 10.7499 47.6169 10.8 46.9V33.9H16.92V38.84H31.29V33.94H37.29L37.34 51.99ZM66.34 41.11H86.64V38.47H66.34V34.2H92.92V45.2H72.62V46.5C72.6109 46.6783 72.6452 46.8561 72.7201 47.0181C72.7951 47.1801 72.9083 47.3215 73.05 47.43C73.3695 47.6599 73.7568 47.7761 74.15 47.76H93.15V52.03H72.32C70.7719 52.1172 69.2395 51.6804 67.97 50.79C67.4247 50.333 66.996 49.7527 66.7195 49.0971C66.443 48.4415 66.3267 47.7295 66.38 47.02L66.34 41.11ZM66.29 55.95H93.19V61.95H66.29V55.95Z" fill="#104573"/>
<path d="M42.8301 51.99H60.8801V45.99H48.8801V0.240005C49.7101 0.170005 50.5401 0.110007 51.3801 0.0700073C48.5057 0.199851 45.6465 0.561017 42.8301 1.15001V51.99Z" fill="white"/>
<path d="M31.2902 38.88H16.9202V33.94H10.8002V46.94C10.7501 47.6569 10.8697 48.3756 11.1495 49.0376C11.4292 49.6996 11.8612 50.2863 12.4102 50.75C13.6889 51.664 15.2407 52.1154 16.8102 52.03H37.3402V34.03H31.3402L31.2902 38.88ZM31.2902 47.49H18.4402C18.0532 47.505 17.6735 47.3808 17.3702 47.14C17.2172 47.0246 17.0957 46.8725 17.0171 46.6977C16.9384 46.5229 16.9051 46.3311 16.9202 46.14V43.32H31.2902V47.49Z" fill="white"/>
<path d="M72.3203 52.02H93.1803V47.75H74.1803C73.7871 47.7661 73.3998 47.6499 73.0803 47.42C72.9386 47.3115 72.8253 47.1702 72.7504 47.0081C72.6755 46.8461 72.6411 46.6683 72.6503 46.49V45.19H92.9203V34.19H66.3803V38.46H86.6803V41.1H66.3803V47C66.3269 47.7095 66.4433 48.4215 66.7198 49.0771C66.9963 49.7327 67.4249 50.313 67.9703 50.77C69.2385 51.6639 70.771 52.1043 72.3203 52.02Z" fill="white"/>
<path d="M93.2301 55.95H66.3301V62H93.2301V55.95Z" fill="white"/>
<path d="M72.4302 77.41V65.36H66.4302V83.46H99.1102C97.3288 86.1783 95.3038 88.7288 93.0602 91.08C97.5856 86.3368 101.205 80.8058 103.74 74.76C103.37 75.65 102.97 76.54 102.55 77.41H72.4302Z" fill="white"/>
<path d="M137.92 78.49V28.55H146.48V46.02C149.227 43.4587 152.865 42.0702 156.62 42.15C158.763 42.1148 160.884 42.5854 162.811 43.5237C164.738 44.4619 166.416 45.8414 167.71 47.55C170.535 51.3672 172.06 55.9908 172.06 60.74C172.06 65.4891 170.535 70.1128 167.71 73.93C166.418 75.6416 164.74 77.0239 162.813 77.964C160.886 78.9042 158.764 79.3756 156.62 79.34C152.36 79.34 149.027 77.91 146.62 75.05H146.48V78.49H137.92ZM154.62 50.01C153.313 49.9355 152.01 50.2148 150.849 50.8185C149.687 51.4221 148.71 52.3277 148.02 53.44C146.825 55.6877 146.2 58.1944 146.2 60.74C146.2 63.2856 146.825 65.7923 148.02 68.04C148.709 69.1541 149.686 70.0617 150.847 70.6672C152.009 71.2726 153.312 71.5534 154.62 71.48C155.935 71.5463 157.244 71.2629 158.414 70.6586C159.584 70.0543 160.573 69.1508 161.28 68.04C162.438 65.7809 163.042 63.2787 163.042 60.74C163.042 58.2013 162.438 55.699 161.28 53.44C160.572 52.3303 159.583 51.4282 158.413 50.8256C157.243 50.223 155.934 49.9416 154.62 50.01Z" fill="#1D1D1B"/>
<path d="M207.94 53.79V72.55C207.812 74.6352 208.273 76.7145 209.27 78.55H200.22C199.624 77.5813 199.332 76.4564 199.38 75.32C196.121 78.0012 192.02 79.446 187.8 79.4C184.64 79.5083 181.556 78.4148 179.17 76.34C178.034 75.3278 177.137 74.0764 176.542 72.6759C175.947 71.2754 175.67 69.7604 175.73 68.24C175.73 62.24 179.334 58.5434 186.54 57.15L190.12 56.45C192.5 55.9834 195.587 55.2834 199.38 54.35V53.29C199.38 50.29 197.14 48.8 192.64 48.8C190.167 48.8 188.45 49.2 187.49 50C186.53 50.8 186.05 52.18 186.05 54.14L177.49 53.79C177.412 52.0278 177.799 50.276 178.612 48.7104C179.424 47.1448 180.634 45.8204 182.12 44.87C184.827 43.0967 188.334 42.21 192.64 42.21C197.28 42.21 200.78 42.89 203.17 44.21C206.35 46.0234 207.94 49.2167 207.94 53.79ZM199.38 65.79V60.79C198.08 61.3752 196.713 61.8017 195.31 62.06L190.61 63.06C189.152 63.2911 187.748 63.7894 186.47 64.53C185.897 64.8941 185.432 65.4054 185.125 66.0106C184.817 66.6157 184.677 67.2924 184.72 67.97C184.706 68.5888 184.842 69.2018 185.115 69.7571C185.388 70.3124 185.791 70.7936 186.29 71.16C187.444 72.0145 188.856 72.4486 190.29 72.39C192.393 72.427 194.466 71.8949 196.29 70.85C197.229 70.3822 198.016 69.6593 198.563 68.7644C199.109 67.8694 199.393 66.8386 199.38 65.79Z" fill="#1D1D1B"/>
<path d="M215.87 78.49V42.99H224.43V47.9C226.35 44.0666 229.997 42.15 235.37 42.15V50.85C232.639 50.7088 229.943 51.5258 227.75 53.16C225.543 54.9866 224.437 57.7 224.43 61.3V78.49H215.87Z" fill="#1D1D1B"/>
<path d="M273.54 62.78H247.3C247.303 63.983 247.569 65.1709 248.078 66.2607C248.588 67.3505 249.329 68.3161 250.25 69.09C251.941 70.6668 254.179 71.524 256.49 71.48C258.486 71.5733 260.473 71.159 262.266 70.2758C264.058 69.3927 265.598 68.0695 266.74 66.43L273.96 70.63C270.18 76.43 264.357 79.3333 256.49 79.34C250.877 79.34 246.41 77.56 243.09 74C239.91 70.5866 238.32 66.1666 238.32 60.74C238.137 55.8168 239.889 51.0177 243.2 47.37C246.453 43.89 250.883 42.15 256.49 42.15C267.863 42.15 273.547 49.0266 273.54 62.78ZM247.3 56.18H264.56C264.464 54.5934 263.792 53.0965 262.67 51.97C261.921 51.0627 260.976 50.3382 259.905 49.8512C258.834 49.3643 257.666 49.1279 256.49 49.16C254.317 49.101 252.193 49.809 250.49 51.16C248.889 52.4234 247.764 54.1935 247.3 56.18Z" fill="#1D1D1B"/>
<path d="M311.43 42.99V78.49H302.87V74.98C300.61 77.8933 297.197 79.3466 292.63 79.34C289.491 79.4937 286.39 78.6041 283.81 76.81C281.017 74.6366 279.62 71.1967 279.62 66.49V42.99H288.18V63.99C288.18 68.6567 290.283 70.99 294.49 70.99C295.751 71.0753 297.014 70.8585 298.174 70.3576C299.334 69.8567 300.358 69.0861 301.16 68.11C302.392 66.3178 303.007 64.1728 302.91 62V42.99H311.43Z" fill="#1D1D1B"/>
<path d="M319.85 78.49V42.99H328.41V46.55C329.589 45.1217 331.083 43.9857 332.775 43.231C334.466 42.4763 336.309 42.1234 338.16 42.2C346.353 42.2 350.447 46.2234 350.44 54.27V78.54H341.88V56.81C341.88 52.5634 339.917 50.4367 335.99 50.43C334.992 50.3929 333.998 50.5742 333.078 50.9611C332.157 51.348 331.332 51.9312 330.66 52.67C329.16 54.31 328.41 56.6734 328.41 59.76V78.49H319.85Z" fill="#1D1D1B"/>
<path d="M0.25 48.74C0.25 48.41 0.320001 48.07 0.360001 47.74C0.320001 48.07 0.28 48.41 0.25 48.74Z" fill="white"/>
<path d="M4.16016 33.13C4.28016 32.83 4.42016 32.54 4.55016 32.25C4.42016 32.55 4.28016 32.83 4.16016 33.13Z" fill="white"/>
<path d="M22.8101 9.89999C24.1834 8.93333 25.6034 8.02666 27.0701 7.17999C25.5967 8.01999 24.1767 8.92666 22.8101 9.89999Z" fill="white"/>
<path d="M10.21 22.37C10.41 22.1 10.6 21.82 10.81 21.55C10.62 21.82 10.41 22.1 10.21 22.37Z" fill="white"/>
<path d="M5.16992 30.88C5.31992 30.56 5.47992 30.24 5.63992 29.88C5.47992 30.24 5.31992 30.55 5.16992 30.88Z" fill="white"/>
<path d="M7.47021 26.55C7.66021 26.23 7.85022 25.9 8.05022 25.55C7.85022 25.9 7.62021 26.23 7.47021 26.55Z" fill="white"/>
<path d="M105.62 69.43C105.42 70.07 105.22 70.7 105 71.33C105.2 70.7 105.4 70.07 105.62 69.43Z" fill="white"/>
<path d="M107.87 53.94C107.87 54.94 107.87 55.94 107.78 56.94C107.83 55.94 107.87 54.94 107.87 53.94Z" fill="white"/>
<path d="M2.22998 38.55C2.30998 38.28 2.37998 38 2.46998 37.73C2.37998 38.03 2.30998 38.31 2.22998 38.55Z" fill="white"/>
<path d="M107.71 57.81C107.66 58.49 107.61 59.17 107.54 59.81C107.62 59.17 107.62 58.49 107.71 57.81Z" fill="white"/>
<path d="M0.560059 46.19C0.610059 45.84 0.660058 45.49 0.720058 45.19C0.620058 45.49 0.620059 45.84 0.560059 46.19Z" fill="white"/>
<path d="M107.4 60.91C107.32 61.52 107.24 62.14 107.14 62.75C107.24 62.14 107.32 61.55 107.4 60.91Z" fill="white"/>
<path d="M16.9201 46.19C16.9049 46.3811 16.9383 46.5729 17.0169 46.7476C17.0956 46.9224 17.217 47.0746 17.3701 47.19C17.6734 47.4308 18.053 47.555 18.4401 47.54H31.29V43.42H16.9201V46.19Z" fill="#104573"/>
<path d="M0.120117 50.44C0.120117 49.87 0.200118 49.31 0.250118 48.74C0.200118 49.31 0.160117 49.87 0.120117 50.44Z" fill="#104573"/>
<path d="M0.360352 47.73C0.420352 47.22 0.480349 46.73 0.560349 46.19C0.480349 46.7 0.420352 47.22 0.360352 47.73Z" fill="#104573"/>
<path d="M0.720215 45.14C0.800215 44.65 0.890215 44.14 0.990215 43.66C0.890215 44.15 0.800215 44.65 0.720215 45.14Z" fill="#104573"/>
<path d="M0 53.83C0 52.99 -2.44007e-06 52.16 0.0599976 51.33C0.0199976 52.16 0 52.99 0 53.83Z" fill="#104573"/>
<path d="M107.78 56.91C107.78 57.21 107.78 57.51 107.71 57.81C107.73 57.55 107.76 57.21 107.78 56.91Z" fill="#104573"/>
<path d="M53.9299 0C53.0799 0 52.2299 -3.05474e-07 51.3799 0.0699997C52.2299 0.0699997 53.0799 0 53.9299 0Z" fill="#104573"/>
<path d="M107.54 59.85C107.54 60.2 107.45 60.55 107.4 60.91C107.45 60.55 107.5 60.2 107.54 59.85Z" fill="#104573"/>
<path d="M104.98 71.33C104.89 71.59 104.81 71.86 104.71 72.13C104.81 71.86 104.89 71.55 104.98 71.33Z" fill="#104573"/>
<path d="M103.85 74.37C103.85 74.5 103.75 74.63 103.69 74.76C103.75 74.63 103.8 74.55 103.85 74.37Z" fill="#104573"/>
<path d="M5.62012 29.92C5.82012 29.5067 6.03012 29.0967 6.25012 28.69C6.04345 29.1033 5.83345 29.5133 5.62012 29.92Z" fill="#104573"/>
<path d="M1.78027 40.17C1.92027 39.6367 2.07027 39.1067 2.23027 38.58C2.07027 39.1134 1.92027 39.6434 1.78027 40.17Z" fill="#104573"/>
<path d="M18.1602 13.55C18.4402 13.29 18.7302 13.05 19.0202 12.8C18.7302 13.09 18.4402 13.33 18.1602 13.55Z" fill="#104573"/>
<path d="M9.37988 23.55C9.64988 23.16 9.92988 22.78 10.2099 22.39C9.92988 22.76 9.61988 23.14 9.37988 23.55Z" fill="#104573"/>
<path d="M10.8101 21.55C11.2701 20.92 11.7501 20.31 12.2401 19.72C11.7501 20.31 11.2701 20.93 10.8101 21.55Z" fill="#104573"/>
<path d="M99.06 83.46H66.38V65.36H72.38V77.41H102.45C102.87 76.54 103.27 75.65 103.64 74.76C103.7 74.63 103.75 74.5 103.8 74.37C104.1 73.63 104.39 72.88 104.66 72.13C104.76 71.86 104.84 71.59 104.93 71.33C105.15 70.7 105.35 70.07 105.55 69.43L105.82 68.43C105.99 67.83 106.14 67.23 106.29 66.63L106.53 65.58C106.66 64.99 106.78 64.39 106.89 63.79C106.96 63.43 107.03 63.07 107.09 62.71C107.19 62.1 107.27 61.48 107.35 60.87C107.4 60.51 107.45 60.16 107.49 59.81C107.56 59.13 107.61 58.45 107.66 57.81C107.66 57.51 107.66 57.21 107.73 56.91C107.78 55.91 107.82 54.91 107.82 53.91C107.812 39.6181 102.132 25.9135 92.0285 15.8057C81.9244 5.69792 68.222 0.0132458 53.93 0C53.08 0 52.23 -3.05474e-07 51.38 0.0699997C50.53 0.14 49.71 0.169998 48.88 0.239998V45.99H60.88V51.99H42.83V1.15C41.56 1.42 40.3 1.74 39.06 2.1L38.23 2.33L36.82 2.79L35.88 3.11L34.54 3.61L33.54 3.99L32.24 4.54L31.3 4.96L30.07 5.55L29.15 6.01C28.74 6.23 28.32 6.44 27.91 6.67L27.07 7.16C25.5967 8 24.1767 8.90667 22.81 9.88L21.93 10.5L20.93 11.3L20.05 11.99L19.05 12.82C18.76 13.07 18.47 13.31 18.19 13.57L17.25 14.42L16.4 15.23L15.51 16.1L14.67 16.99L13.85 17.86L12.96 18.86L12.27 19.67C11.78 20.26 11.27 20.87 10.84 21.5C10.63 21.77 10.44 22.05 10.24 22.32C10.04 22.59 9.68005 23.09 9.41005 23.48L8.81004 24.4L8.05005 25.55C7.85005 25.87 7.66004 26.2 7.47004 26.55C7.28004 26.9 7.02005 27.32 6.80005 27.71C6.58005 28.1 6.44005 28.36 6.27005 28.71C6.10005 29.06 5.84005 29.53 5.64005 29.94C5.44005 30.35 5.32004 30.58 5.17004 30.94C5.02004 31.3 4.75005 31.85 4.55005 32.31C4.42005 32.6 4.28005 32.89 4.16005 33.19C3.91005 33.79 3.68005 34.39 3.45005 34.99C3.39005 35.16 3.32005 35.33 3.25005 35.49C2.97005 36.26 2.71004 37.04 2.47004 37.82C2.38004 38.09 2.31005 38.37 2.23005 38.64C2.07005 39.1733 1.92004 39.7033 1.78004 40.23C1.69004 40.55 1.62004 40.88 1.54004 41.23C1.42004 41.72 1.30004 42.23 1.19004 42.72C1.12004 43.06 1.05004 43.41 0.990043 43.72C0.930043 44.03 0.800043 44.72 0.720043 45.2C0.640043 45.68 0.610043 45.9 0.560043 46.2C0.480043 46.71 0.420046 47.2 0.360046 47.74C0.360046 48.08 0.280046 48.42 0.250046 48.74C0.200046 49.31 0.160044 49.87 0.120044 50.44L0.0600431 51.33C0.0600431 52.16 4.55658e-05 52.99 4.55658e-05 53.83V53.94C-0.010866 62.3301 1.93811 70.6067 5.69167 78.1104C9.44522 85.614 14.8996 92.1372 21.62 97.16C23.4537 98.5218 25.3708 99.7676 27.36 100.89C28.36 101.47 29.43 102.03 30.51 102.55C37.8025 106.064 45.7952 107.883 53.89 107.87C54.97 107.87 56.03 107.87 57.1 107.77L58.1 107.69C58.85 107.69 59.59 107.57 60.34 107.48L61.34 107.35C62.12 107.24 62.89 107.11 63.66 106.97L64.44 106.83C65.44 106.63 66.5 106.4 67.5 106.13L67.81 106.05C68.71 105.81 69.61 105.54 70.49 105.26L71.27 104.99C72.0234 104.743 72.7634 104.473 73.49 104.18L74.23 103.89C75.1 103.54 75.96 103.16 76.8 102.76L77.02 102.67C78.02 102.2 78.95 101.67 79.89 101.19L80.04 101.11C80.9 100.63 81.74 100.11 82.57 99.61L83.01 99.33C83.78 98.83 84.55 98.33 85.29 97.77L85.59 97.56C88.1783 95.674 90.5944 93.5624 92.81 91.25L92.97 91.08C95.2276 88.7305 97.266 86.1799 99.06 83.46ZM37.34 51.99H16.81C15.2406 52.0754 13.6888 51.624 12.41 50.71C11.861 50.2463 11.4291 49.6596 11.1493 48.9976C10.8696 48.3356 10.7499 47.6169 10.8 46.9V33.9H16.92V38.84H31.29V33.94H37.29L37.34 51.99ZM66.34 41.11H86.64V38.47H66.34V34.2H92.92V45.2H72.62V46.5C72.6109 46.6783 72.6452 46.8561 72.7201 47.0181C72.7951 47.1801 72.9083 47.3215 73.05 47.43C73.3695 47.6599 73.7568 47.7761 74.15 47.76H93.15V52.03H72.32C70.7719 52.1172 69.2395 51.6804 67.97 50.79C67.4247 50.333 66.996 49.7527 66.7195 49.0971C66.443 48.4415 66.3267 47.7295 66.38 47.02L66.34 41.11ZM66.29 55.95H93.19V61.95H66.29V55.95Z" fill="#104573"/>
<path d="M42.8301 51.99H60.8801V45.99H48.8801V0.240005C49.7101 0.170005 50.5401 0.110007 51.3801 0.0700073C48.5057 0.199851 45.6465 0.561017 42.8301 1.15001V51.99Z" fill="white"/>
<path d="M31.2902 38.88H16.9202V33.94H10.8002V46.94C10.7501 47.6569 10.8697 48.3756 11.1495 49.0376C11.4292 49.6996 11.8612 50.2863 12.4102 50.75C13.6889 51.664 15.2407 52.1154 16.8102 52.03H37.3402V34.03H31.3402L31.2902 38.88ZM31.2902 47.49H18.4402C18.0532 47.505 17.6735 47.3808 17.3702 47.14C17.2172 47.0246 17.0957 46.8725 17.0171 46.6977C16.9384 46.5229 16.9051 46.3311 16.9202 46.14V43.32H31.2902V47.49Z" fill="white"/>
<path d="M72.3203 52.02H93.1803V47.75H74.1803C73.7871 47.7661 73.3998 47.6499 73.0803 47.42C72.9386 47.3115 72.8253 47.1702 72.7504 47.0081C72.6755 46.8461 72.6411 46.6683 72.6503 46.49V45.19H92.9203V34.19H66.3803V38.46H86.6803V41.1H66.3803V47C66.3269 47.7095 66.4433 48.4215 66.7198 49.0771C66.9963 49.7327 67.4249 50.313 67.9703 50.77C69.2385 51.6639 70.771 52.1043 72.3203 52.02Z" fill="white"/>
<path d="M93.2301 55.95H66.3301V62H93.2301V55.95Z" fill="white"/>
<path d="M72.4302 77.41V65.36H66.4302V83.46H99.1102C97.3288 86.1783 95.3038 88.7288 93.0602 91.08C97.5856 86.3368 101.205 80.8058 103.74 74.76C103.37 75.65 102.97 76.54 102.55 77.41H72.4302Z" fill="white"/>
<path d="M137.92 78.49V28.55H146.48V46.02C149.227 43.4587 152.865 42.0702 156.62 42.15C158.763 42.1148 160.884 42.5854 162.811 43.5237C164.738 44.4619 166.416 45.8414 167.71 47.55C170.535 51.3672 172.06 55.9908 172.06 60.74C172.06 65.4891 170.535 70.1128 167.71 73.93C166.418 75.6416 164.74 77.0239 162.813 77.964C160.886 78.9042 158.764 79.3756 156.62 79.34C152.36 79.34 149.027 77.91 146.62 75.05H146.48V78.49H137.92ZM154.62 50.01C153.313 49.9355 152.01 50.2148 150.849 50.8185C149.687 51.4221 148.71 52.3277 148.02 53.44C146.825 55.6877 146.2 58.1944 146.2 60.74C146.2 63.2856 146.825 65.7923 148.02 68.04C148.709 69.1541 149.686 70.0617 150.847 70.6672C152.009 71.2726 153.312 71.5534 154.62 71.48C155.935 71.5463 157.244 71.2629 158.414 70.6586C159.584 70.0543 160.573 69.1508 161.28 68.04C162.438 65.7809 163.042 63.2787 163.042 60.74C163.042 58.2013 162.438 55.699 161.28 53.44C160.572 52.3303 159.583 51.4282 158.413 50.8256C157.243 50.223 155.934 49.9416 154.62 50.01Z" fill="#1D1D1B"/>
<path d="M207.94 53.79V72.55C207.812 74.6352 208.273 76.7145 209.27 78.55H200.22C199.624 77.5813 199.332 76.4564 199.38 75.32C196.121 78.0012 192.02 79.446 187.8 79.4C184.64 79.5083 181.556 78.4148 179.17 76.34C178.034 75.3278 177.137 74.0764 176.542 72.6759C175.947 71.2754 175.67 69.7604 175.73 68.24C175.73 62.24 179.334 58.5434 186.54 57.15L190.12 56.45C192.5 55.9834 195.587 55.2834 199.38 54.35V53.29C199.38 50.29 197.14 48.8 192.64 48.8C190.167 48.8 188.45 49.2 187.49 50C186.53 50.8 186.05 52.18 186.05 54.14L177.49 53.79C177.412 52.0278 177.799 50.276 178.612 48.7104C179.424 47.1448 180.634 45.8204 182.12 44.87C184.827 43.0967 188.334 42.21 192.64 42.21C197.28 42.21 200.78 42.89 203.17 44.21C206.35 46.0234 207.94 49.2167 207.94 53.79ZM199.38 65.79V60.79C198.08 61.3752 196.713 61.8017 195.31 62.06L190.61 63.06C189.152 63.2911 187.748 63.7894 186.47 64.53C185.897 64.8941 185.432 65.4054 185.125 66.0106C184.817 66.6157 184.677 67.2924 184.72 67.97C184.706 68.5888 184.842 69.2018 185.115 69.7571C185.388 70.3124 185.791 70.7936 186.29 71.16C187.444 72.0145 188.856 72.4486 190.29 72.39C192.393 72.427 194.466 71.8949 196.29 70.85C197.229 70.3822 198.016 69.6593 198.563 68.7644C199.109 67.8694 199.393 66.8386 199.38 65.79Z" fill="#1D1D1B"/>
<path d="M215.87 78.49V42.99H224.43V47.9C226.35 44.0666 229.997 42.15 235.37 42.15V50.85C232.639 50.7088 229.943 51.5258 227.75 53.16C225.543 54.9866 224.437 57.7 224.43 61.3V78.49H215.87Z" fill="#1D1D1B"/>
<path d="M273.54 62.78H247.3C247.303 63.983 247.569 65.1709 248.078 66.2607C248.588 67.3505 249.329 68.3161 250.25 69.09C251.941 70.6668 254.179 71.524 256.49 71.48C258.486 71.5733 260.473 71.159 262.266 70.2758C264.058 69.3927 265.598 68.0695 266.74 66.43L273.96 70.63C270.18 76.43 264.357 79.3333 256.49 79.34C250.877 79.34 246.41 77.56 243.09 74C239.91 70.5866 238.32 66.1666 238.32 60.74C238.137 55.8168 239.889 51.0177 243.2 47.37C246.453 43.89 250.883 42.15 256.49 42.15C267.863 42.15 273.547 49.0266 273.54 62.78ZM247.3 56.18H264.56C264.464 54.5934 263.792 53.0965 262.67 51.97C261.921 51.0627 260.976 50.3382 259.905 49.8512C258.834 49.3643 257.666 49.1279 256.49 49.16C254.317 49.101 252.193 49.809 250.49 51.16C248.889 52.4234 247.764 54.1935 247.3 56.18Z" fill="#1D1D1B"/>
<path d="M311.43 42.99V78.49H302.87V74.98C300.61 77.8933 297.197 79.3466 292.63 79.34C289.491 79.4937 286.39 78.6041 283.81 76.81C281.017 74.6366 279.62 71.1967 279.62 66.49V42.99H288.18V63.99C288.18 68.6567 290.283 70.99 294.49 70.99C295.751 71.0753 297.014 70.8585 298.174 70.3576C299.334 69.8567 300.358 69.0861 301.16 68.11C302.392 66.3178 303.007 64.1728 302.91 62V42.99H311.43Z" fill="#1D1D1B"/>
<path d="M319.85 78.49V42.99H328.41V46.55C329.589 45.1217 331.083 43.9857 332.775 43.231C334.466 42.4763 336.309 42.1234 338.16 42.2C346.353 42.2 350.447 46.2234 350.44 54.27V78.54H341.88V56.81C341.88 52.5634 339.917 50.4367 335.99 50.43C334.992 50.3929 333.998 50.5742 333.078 50.9611C332.157 51.348 331.332 51.9312 330.66 52.67C329.16 54.31 328.41 56.6734 328.41 59.76V78.49H319.85Z" fill="#1D1D1B"/>
<path d="M0.25 48.74C0.25 48.41 0.320001 48.07 0.360001 47.74C0.320001 48.07 0.28 48.41 0.25 48.74Z" fill="white"/>
<path d="M4.16016 33.13C4.28016 32.83 4.42016 32.54 4.55016 32.25C4.42016 32.55 4.28016 32.83 4.16016 33.13Z" fill="white"/>
<path d="M22.8101 9.89999C24.1834 8.93333 25.6034 8.02666 27.0701 7.17999C25.5967 8.01999 24.1767 8.92666 22.8101 9.89999Z" fill="white"/>
<path d="M10.21 22.37C10.41 22.1 10.6 21.82 10.81 21.55C10.62 21.82 10.41 22.1 10.21 22.37Z" fill="white"/>
<path d="M5.16992 30.88C5.31992 30.56 5.47992 30.24 5.63992 29.88C5.47992 30.24 5.31992 30.55 5.16992 30.88Z" fill="white"/>
<path d="M7.47021 26.55C7.66021 26.23 7.85022 25.9 8.05022 25.55C7.85022 25.9 7.62021 26.23 7.47021 26.55Z" fill="white"/>
<path d="M105.62 69.43C105.42 70.07 105.22 70.7 105 71.33C105.2 70.7 105.4 70.07 105.62 69.43Z" fill="white"/>
<path d="M107.87 53.94C107.87 54.94 107.87 55.94 107.78 56.94C107.83 55.94 107.87 54.94 107.87 53.94Z" fill="white"/>
<path d="M2.22998 38.55C2.30998 38.28 2.37998 38 2.46998 37.73C2.37998 38.03 2.30998 38.31 2.22998 38.55Z" fill="white"/>
<path d="M107.71 57.81C107.66 58.49 107.61 59.17 107.54 59.81C107.62 59.17 107.62 58.49 107.71 57.81Z" fill="white"/>
<path d="M0.560059 46.19C0.610059 45.84 0.660058 45.49 0.720058 45.19C0.620058 45.49 0.620059 45.84 0.560059 46.19Z" fill="white"/>
<path d="M107.4 60.91C107.32 61.52 107.24 62.14 107.14 62.75C107.24 62.14 107.32 61.55 107.4 60.91Z" fill="white"/>
<path d="M16.9201 46.19C16.9049 46.3811 16.9383 46.5729 17.0169 46.7476C17.0956 46.9224 17.217 47.0746 17.3701 47.19C17.6734 47.4308 18.053 47.555 18.4401 47.54H31.29V43.42H16.9201V46.19Z" fill="#104573"/>
<path d="M0.120117 50.44C0.120117 49.87 0.200118 49.31 0.250118 48.74C0.200118 49.31 0.160117 49.87 0.120117 50.44Z" fill="#104573"/>
<path d="M0.360352 47.73C0.420352 47.22 0.480349 46.73 0.560349 46.19C0.480349 46.7 0.420352 47.22 0.360352 47.73Z" fill="#104573"/>
<path d="M0.720215 45.14C0.800215 44.65 0.890215 44.14 0.990215 43.66C0.890215 44.15 0.800215 44.65 0.720215 45.14Z" fill="#104573"/>
<path d="M0 53.83C0 52.99 -2.44007e-06 52.16 0.0599976 51.33C0.0199976 52.16 0 52.99 0 53.83Z" fill="#104573"/>
<path d="M107.78 56.91C107.78 57.21 107.78 57.51 107.71 57.81C107.73 57.55 107.76 57.21 107.78 56.91Z" fill="#104573"/>
<path d="M53.9299 0C53.0799 0 52.2299 -3.05474e-07 51.3799 0.0699997C52.2299 0.0699997 53.0799 0 53.9299 0Z" fill="#104573"/>
<path d="M107.54 59.85C107.54 60.2 107.45 60.55 107.4 60.91C107.45 60.55 107.5 60.2 107.54 59.85Z" fill="#104573"/>
<path d="M104.98 71.33C104.89 71.59 104.81 71.86 104.71 72.13C104.81 71.86 104.89 71.55 104.98 71.33Z" fill="#104573"/>
<path d="M103.85 74.37C103.85 74.5 103.75 74.63 103.69 74.76C103.75 74.63 103.8 74.55 103.85 74.37Z" fill="#104573"/>
<path d="M5.62012 29.92C5.82012 29.5067 6.03012 29.0967 6.25012 28.69C6.04345 29.1033 5.83345 29.5133 5.62012 29.92Z" fill="#104573"/>
<path d="M1.78027 40.17C1.92027 39.6367 2.07027 39.1067 2.23027 38.58C2.07027 39.1134 1.92027 39.6434 1.78027 40.17Z" fill="#104573"/>
<path d="M18.1602 13.55C18.4402 13.29 18.7302 13.05 19.0202 12.8C18.7302 13.09 18.4402 13.33 18.1602 13.55Z" fill="#104573"/>
<path d="M9.37988 23.55C9.64988 23.16 9.92988 22.78 10.2099 22.39C9.92988 22.76 9.61988 23.14 9.37988 23.55Z" fill="#104573"/>
<path d="M10.8101 21.55C11.2701 20.92 11.7501 20.31 12.2401 19.72C11.7501 20.31 11.2701 20.93 10.8101 21.55Z" fill="#104573"/>
<path d="M99.06 83.46H66.38V65.36H72.38V77.41H102.45C102.87 76.54 103.27 75.65 103.64 74.76C103.7 74.63 103.75 74.5 103.8 74.37C104.1 73.63 104.39 72.88 104.66 72.13C104.76 71.86 104.84 71.59 104.93 71.33C105.15 70.7 105.35 70.07 105.55 69.43L105.82 68.43C105.99 67.83 106.14 67.23 106.29 66.63L106.53 65.58C106.66 64.99 106.78 64.39 106.89 63.79C106.96 63.43 107.03 63.07 107.09 62.71C107.19 62.1 107.27 61.48 107.35 60.87C107.4 60.51 107.45 60.16 107.49 59.81C107.56 59.13 107.61 58.45 107.66 57.81C107.66 57.51 107.66 57.21 107.73 56.91C107.78 55.91 107.82 54.91 107.82 53.91C107.812 39.6181 102.132 25.9135 92.0285 15.8057C81.9244 5.69792 68.222 0.0132458 53.93 0C53.08 0 52.23 -3.05474e-07 51.38 0.0699997C50.53 0.14 49.71 0.169998 48.88 0.239998V45.99H60.88V51.99H42.83V1.15C41.56 1.42 40.3 1.74 39.06 2.1L38.23 2.33L36.82 2.79L35.88 3.11L34.54 3.61L33.54 3.99L32.24 4.54L31.3 4.96L30.07 5.55L29.15 6.01C28.74 6.23 28.32 6.44 27.91 6.67L27.07 7.16C25.5967 8 24.1767 8.90667 22.81 9.88L21.93 10.5L20.93 11.3L20.05 11.99L19.05 12.82C18.76 13.07 18.47 13.31 18.19 13.57L17.25 14.42L16.4 15.23L15.51 16.1L14.67 16.99L13.85 17.86L12.96 18.86L12.27 19.67C11.78 20.26 11.27 20.87 10.84 21.5C10.63 21.77 10.44 22.05 10.24 22.32C10.04 22.59 9.68005 23.09 9.41005 23.48L8.81004 24.4L8.05005 25.55C7.85005 25.87 7.66004 26.2 7.47004 26.55C7.28004 26.9 7.02005 27.32 6.80005 27.71C6.58005 28.1 6.44005 28.36 6.27005 28.71C6.10005 29.06 5.84005 29.53 5.64005 29.94C5.44005 30.35 5.32004 30.58 5.17004 30.94C5.02004 31.3 4.75005 31.85 4.55005 32.31C4.42005 32.6 4.28005 32.89 4.16005 33.19C3.91005 33.79 3.68005 34.39 3.45005 34.99C3.39005 35.16 3.32005 35.33 3.25005 35.49C2.97005 36.26 2.71004 37.04 2.47004 37.82C2.38004 38.09 2.31005 38.37 2.23005 38.64C2.07005 39.1733 1.92004 39.7033 1.78004 40.23C1.69004 40.55 1.62004 40.88 1.54004 41.23C1.42004 41.72 1.30004 42.23 1.19004 42.72C1.12004 43.06 1.05004 43.41 0.990043 43.72C0.930043 44.03 0.800043 44.72 0.720043 45.2C0.640043 45.68 0.610043 45.9 0.560043 46.2C0.480043 46.71 0.420046 47.2 0.360046 47.74C0.360046 48.08 0.280046 48.42 0.250046 48.74C0.200046 49.31 0.160044 49.87 0.120044 50.44L0.0600431 51.33C0.0600431 52.16 4.55658e-05 52.99 4.55658e-05 53.83V53.94C-0.010866 62.3301 1.93811 70.6067 5.69167 78.1104C9.44522 85.614 14.8996 92.1372 21.62 97.16C23.4537 98.5218 25.3708 99.7676 27.36 100.89C28.36 101.47 29.43 102.03 30.51 102.55C37.8025 106.064 45.7952 107.883 53.89 107.87C54.97 107.87 56.03 107.87 57.1 107.77L58.1 107.69C58.85 107.69 59.59 107.57 60.34 107.48L61.34 107.35C62.12 107.24 62.89 107.11 63.66 106.97L64.44 106.83C65.44 106.63 66.5 106.4 67.5 106.13L67.81 106.05C68.71 105.81 69.61 105.54 70.49 105.26L71.27 104.99C72.0234 104.743 72.7634 104.473 73.49 104.18L74.23 103.89C75.1 103.54 75.96 103.16 76.8 102.76L77.02 102.67C78.02 102.2 78.95 101.67 79.89 101.19L80.04 101.11C80.9 100.63 81.74 100.11 82.57 99.61L83.01 99.33C83.78 98.83 84.55 98.33 85.29 97.77L85.59 97.56C88.1783 95.674 90.5944 93.5624 92.81 91.25L92.97 91.08C95.2276 88.7305 97.266 86.1799 99.06 83.46ZM37.34 51.99H16.81C15.2406 52.0754 13.6888 51.624 12.41 50.71C11.861 50.2463 11.4291 49.6596 11.1493 48.9976C10.8696 48.3356 10.7499 47.6169 10.8 46.9V33.9H16.92V38.84H31.29V33.94H37.29L37.34 51.99ZM66.34 41.11H86.64V38.47H66.34V34.2H92.92V45.2H72.62V46.5C72.6109 46.6783 72.6452 46.8561 72.7201 47.0181C72.7951 47.1801 72.9083 47.3215 73.05 47.43C73.3695 47.6599 73.7568 47.7761 74.15 47.76H93.15V52.03H72.32C70.7719 52.1172 69.2395 51.6804 67.97 50.79C67.4247 50.333 66.996 49.7527 66.7195 49.0971C66.443 48.4415 66.3267 47.7295 66.38 47.02L66.34 41.11ZM66.29 55.95H93.19V61.95H66.29V55.95Z" fill="#104573"/>
<path d="M42.8301 51.99H60.8801V45.99H48.8801V0.240005C49.7101 0.170005 50.5401 0.110007 51.3801 0.0700073C48.5057 0.199851 45.6465 0.561017 42.8301 1.15001V51.99Z" fill="white"/>
<path d="M31.2902 38.88H16.9202V33.94H10.8002V46.94C10.7501 47.6569 10.8697 48.3756 11.1495 49.0376C11.4292 49.6996 11.8612 50.2863 12.4102 50.75C13.6889 51.664 15.2407 52.1154 16.8102 52.03H37.3402V34.03H31.3402L31.2902 38.88ZM31.2902 47.49H18.4402C18.0532 47.505 17.6735 47.3808 17.3702 47.14C17.2172 47.0246 17.0957 46.8725 17.0171 46.6977C16.9384 46.5229 16.9051 46.3311 16.9202 46.14V43.32H31.2902V47.49Z" fill="white"/>
<path d="M72.3203 52.02H93.1803V47.75H74.1803C73.7871 47.7661 73.3998 47.6499 73.0803 47.42C72.9386 47.3115 72.8253 47.1702 72.7504 47.0081C72.6755 46.8461 72.6411 46.6683 72.6503 46.49V45.19H92.9203V34.19H66.3803V38.46H86.6803V41.1H66.3803V47C66.3269 47.7095 66.4433 48.4215 66.7198 49.0771C66.9963 49.7327 67.4249 50.313 67.9703 50.77C69.2385 51.6639 70.771 52.1043 72.3203 52.02Z" fill="white"/>
<path d="M93.2301 55.95H66.3301V62H93.2301V55.95Z" fill="white"/>
<path d="M72.4302 77.41V65.36H66.4302V83.46H99.1102C97.3288 86.1783 95.3038 88.7288 93.0602 91.08C97.5856 86.3368 101.205 80.8058 103.74 74.76C103.37 75.65 102.97 76.54 102.55 77.41H72.4302Z" fill="white"/>
</g>
<defs>
<clipPath id="clip0_21_218">
<rect width="350.44" height="107.87" fill="white"/>
</clipPath>
</defs>
</svg>
